# xmcd
#
# Track frame offsets:
#	150
#	18916
#	35170
#	50051
#	69227
#	86280
#	102286
#	118796
#	138180
#	159480
#	177659
#	194417
#	215962
#	235920
#	251311
#
# Disc length: 3595 seconds
# Revision: 1
# Processed by: cddbd v1.5.2PL0 Copyright (c) Steve Scherf et al.
# Submitted via: dBpowerAMP V12.0
#
DISCID=d40e090f
DTITLE=Jennifer Hudson - Jennifer Hudson
DYEAR=2008
DGENRE=
TTITLE0=Spotlight
TTITLE1=If This Isn't Love
TTITLE2=Pocketbook (feat. Ludacris)
TTITLE3=Giving Myself
TTITLE4=What's Wrong (Go Away) (feat. T-Pain)
TTITLE5=My Heart
TTITLE6=You Pulled Me Through
TTITLE7=I'm His Only Woman (feat. Fantasia)
TTITLE8=Can't Stop The Rain
TTITLE9=We Gon' Fight
TTITLE10=Invisible
TTITLE11=And I'm Telling You I'm Not Going
TTITLE12=Jesu Promised Me A Home Over There
TTITLE13=All Dressed In Love
TTITLE14=Stand Up
EXTD=
EXTT0=
EXTT1=
EXTT2=
EXTT3=
EXTT4=
EXTT5=
EXTT6=
EXTT7=
EXTT8=
EXTT9=
EXTT10=
EXTT11=
EXTT12=
EXTT13=
EXTT14=
PLAYORDER=
